<svg xmlns="http://www.w3.org/2000/svg" xmlns:xlink="http://www.w3.org/1999/xlink" width="500px" height="500px" viewBox="0 0 500 500">
  <defs>
    <linearGradient id="linear-gradient" y1="0.492" x2="1" y2="0.508" gradientUnits="objectBoundingBox">
      <stop offset="0" stop-color="#9c6c07"/>
      <stop offset="0.231" stop-color="#ffca03"/>
      <stop offset="0.502" stop-color="#e8dcb5"/>
      <stop offset="0.761" stop-color="#fbc703"/>
      <stop offset="1" stop-color="#bd9116"/>
    </linearGradient>
    <linearGradient id="linear-gradient-2" x1="0.028" y1="0.716" x2="0.908" y2="0.698" gradientUnits="objectBoundingBox">
      <stop offset="0" stop-color="#9c6c07"/>
      <stop offset="0.197" stop-color="#ffca03"/>
      <stop offset="0.495" stop-color="#e8dcb5"/>
      <stop offset="0.692" stop-color="#fbc703"/>
      <stop offset="1" stop-color="#bd9116"/>
    </linearGradient>
    <linearGradient id="linear-gradient-3" x1="0.038" y1="-2.156" x2="0.962" y2="3.156" xlink:href="#linear-gradient"/>
    <linearGradient id="linear-gradient-4" y1="0.288" x2="1" y2="0.199" gradientUnits="objectBoundingBox">
      <stop offset="0" stop-color="#9c6c07"/>
      <stop offset="0.243" stop-color="#ffca03"/>
      <stop offset="0.51" stop-color="#e8dcb5"/>
      <stop offset="0.791" stop-color="#fbc703"/>
      <stop offset="1" stop-color="#bd9116"/>
    </linearGradient>
    <linearGradient id="linear-gradient-5" x1="0.006" y1="0.082" x2="0.994" y2="0.918" xlink:href="#linear-gradient"/>
  </defs>
  <g id="Group_8" data-name="Group 8" transform="translate(2824.939 -1566.503)">
    <path id="Path_1" data-name="Path 1" d="M1091.542,447.328l1.173-220.484,66.214-34.764.109,237.73c11.721-4.689,111.9-70.761,120.287-77.147l-.9-143.712L1253.3,198.627l-.107-134.7c6.938-5.514,56.536-33.227,65.121-36.193l.452,296.5c23.789-7.294,9.156-11.08,61.441,23.752,11.414,7.608,49.91,34.991,60.283,38.326l.164-249.37,38.516-24.337.818,303.535c18.88,7.909,85.867,61.1,102.276,65.365l-.133-351.428c-17-11.012-51.975-24.228-72.921-34.808-40.66-20.546-23.774-9.289-68.124,13.745l-.646-63.86c-34.42-14.456-69.782-26.531-104.764-41.469-18.458-7.88-20.757-3.088-51.862,14.668-14.847,8.478-33.6,20.077-47.561,26.049l-.146,147.134c-32.727-8.679-66.685-33.456-84.31-24.424-14.445,7.409-64.259,37.848-75.437,41.6-2.255,55.4-.146,129.812-.314,188.891-.085,29.87.142,29.676,15.495,49.729Zm194.773-87.865c-.438.395-1.029.92-1.326,1.178l-6.591,5.309a51.726,51.726,0,0,1-6.851,4.286c-27.414,16.136-87.246,56.652-107.787,66.161-4.574,4.353-38.972,25.669-45.338,27.833,4.572,9.411,7.413,10.332,14.338,14.437,14.574-3.863,43.879-21.82,60.006-29.914l118.743-60.977c12.986-6.768,16.325-13.156,30.311-5.954,11.2,5.762,20.921,10.668,31.423,15.848l180.893,91.041c13.83,6.927,50.115,26.932,61.118,29.471L1371.146,354.706c-10.454-7.01-26.239-16.11-35.713-24.19l-49.118,28.947Z" transform="translate(-3665.717 1566.484)" fill-rule="evenodd" fill="url(#linear-gradient)"/>
    <path id="Path_2" data-name="Path 2" d="M1091.542,447.328l1.173-220.484,66.214-34.764.109,237.73c11.721-4.689,111.9-70.761,120.287-77.147l-.9-143.712L1253.3,198.627l-.107-134.7c6.938-5.514,56.536-33.227,65.121-36.193l.452,296.5c23.789-7.294,9.156-11.08,61.441,23.752,11.414,7.608,49.91,34.991,60.283,38.326l.164-249.37,38.516-24.337.818,303.535c18.88,7.909,85.867,61.1,102.276,65.365l-.133-351.428c-17-11.012-51.975-24.228-72.921-34.808-40.66-20.546-23.774-9.289-68.124,13.745l-.646-63.86c-34.42-14.456-69.782-26.531-104.764-41.469-18.458-7.88-20.757-3.088-51.862,14.668-14.847,8.478-33.6,20.077-47.561,26.049l-.146,147.134c-32.727-8.679-66.685-33.456-84.31-24.424-14.445,7.409-64.259,37.848-75.437,41.6-2.255,55.4-.146,129.812-.314,188.891-.085,29.87.142,29.676,15.495,49.729Zm194.773-87.865c-.438.395-1.029.92-1.326,1.178l-6.591,5.309a51.726,51.726,0,0,1-6.851,4.286c-27.414,16.136-87.246,56.652-107.787,66.161-4.574,4.353-38.972,25.669-45.338,27.833,4.572,9.411,7.413,10.332,14.338,14.437,14.574-3.863,43.879-21.82,60.006-29.914l118.743-60.977c12.986-6.768,16.325-13.156,30.311-5.954,11.2,5.762,20.921,10.668,31.423,15.848l180.893,91.041c13.83,6.927,50.115,26.932,61.118,29.471L1371.146,354.706c-10.454-7.01-26.239-16.11-35.713-24.19l-49.118,28.947Z" transform="translate(-3665.717 1566.484)" fill-rule="evenodd" fill="url(#linear-gradient-2)"/>
    <path id="Path_3" data-name="Path 3" d="M1091.542,447.328l1.173-220.484,66.214-34.764.109,237.73c11.721-4.689,111.9-70.761,120.287-77.147l-.9-143.712L1253.3,198.627l-.107-134.7c6.938-5.514,56.536-33.227,65.121-36.193l.452,296.5c23.789-7.294,9.156-11.08,61.441,23.752,11.414,7.608,49.91,34.991,60.283,38.326l.164-249.37,38.516-24.337.818,303.535c18.88,7.909,85.867,61.1,102.276,65.365l-.133-351.428c-17-11.012-51.975-24.228-72.921-34.808-40.66-20.546-23.774-9.289-68.124,13.745l-.646-63.86c-34.42-14.456-69.782-26.531-104.764-41.469-18.458-7.88-20.757-3.088-51.862,14.668-14.847,8.478-33.6,20.077-47.561,26.049l-.146,147.134c-32.727-8.679-66.685-33.456-84.31-24.424-14.445,7.409-64.259,37.848-75.437,41.6-2.255,55.4-.146,129.812-.314,188.891-.085,29.87.142,29.676,15.495,49.729Zm194.773-87.865c-.438.395-1.029.92-1.326,1.178l-6.591,5.309a51.726,51.726,0,0,1-6.851,4.286c-27.414,16.136-87.246,56.652-107.787,66.161-4.574,4.353-38.972,25.669-45.338,27.833,4.572,9.411,7.413,10.332,14.338,14.437,14.574-3.863,43.879-21.82,60.006-29.914l118.743-60.977c12.986-6.768,16.325-13.156,30.311-5.954,11.2,5.762,20.921,10.668,31.423,15.848l180.893,91.041c13.83,6.927,50.115,26.932,61.118,29.471L1371.146,354.706c-10.454-7.01-26.239-16.11-35.713-24.19l-49.118,28.947Z" transform="translate(-3665.717 1566.484)" fill="none" fill-rule="evenodd"/>
    <path id="Path_4" data-name="Path 4" d="M1023.749,1601.836c77.391.061,128.466-4.419,203.306-21.381,36.8-8.343,122.826-28.52,149.555-44.13l-87.99,14.849c-165.15,19.359-489.017-1.777-565.992-133.951-32.457-55.731-12.574-89.551-10.805-116.867.938-14.428.225-33.493-.31-48.115-39.273,13.593-85.093,68.7-85.972,122.163-1.032,62.7,46.743,106.948,79.754,129.855,80.295,55.714,197.236,97.512,318.456,97.58ZM945.072,1419.39l.013,4.5.434,10.626,29.117.787.709-9.156-.12-6.75-.4-14.053-29.711.063-.044,13.99Zm42.444,15.222,29.24.53.031-29.069-29.5-.881.231,29.418Zm-.205,40.586,29.419.388-.246-30.195-27.933-.255-1.239,30.062Zm-42.2-.133,29.445.659.07-30.762-28.461.175-1.054,29.931Z" transform="translate(-3314.034 587.383)" fill="#fff" fill-rule="evenodd"/>
    <path id="Path_5" data-name="Path 5" d="M1023.749,1601.836c77.391.061,128.466-4.419,203.306-21.381,36.8-8.343,122.826-28.52,149.555-44.13l-87.99,14.849c-165.15,19.359-489.017-1.777-565.992-133.951-32.457-55.731-12.574-89.551-10.805-116.867.938-14.428.225-33.493-.31-48.115-39.273,13.593-85.093,68.7-85.972,122.163-1.032,62.7,46.743,106.948,79.754,129.855,80.295,55.714,197.236,97.512,318.456,97.58ZM945.072,1419.39l.013,4.5.434,10.626,29.117.787.709-9.156-.12-6.75-.4-14.053-29.711.063-.044,13.99Zm42.444,15.222,29.24.53.031-29.069-29.5-.881.231,29.418Zm-.205,40.586,29.419.388-.246-30.195-27.933-.255-1.239,30.062Zm-42.2-.133,29.445.659.07-30.762-28.461.175-1.054,29.931Z" transform="translate(-3314.034 587.383)" fill="#fff" fill-rule="evenodd"/>
    <path id="Path_6" data-name="Path 6" d="M1023.749,1601.836c77.391.061,128.466-4.419,203.306-21.381,36.8-8.343,122.826-28.52,149.555-44.13l-87.99,14.849c-165.15,19.359-489.017-1.777-565.992-133.951-32.457-55.731-12.574-89.551-10.805-116.867.938-14.428.225-33.493-.31-48.115-39.273,13.593-85.093,68.7-85.972,122.163-1.032,62.7,46.743,106.948,79.754,129.855,80.295,55.714,197.236,97.512,318.456,97.58ZM945.072,1419.39l.013,4.5.434,10.626,29.117.787.709-9.156-.12-6.75-.4-14.053-29.711.063-.044,13.99Zm42.444,15.222,29.24.53.031-29.069-29.5-.881.231,29.418Zm-.205,40.586,29.419.388-.246-30.195-27.933-.255-1.239,30.062Zm-42.2-.133,29.445.659.07-30.762-28.461.175-1.054,29.931Z" transform="translate(-3314.034 587.383)" fill="none" fill-rule="evenodd"/>
    <path id="Path_7" data-name="Path 7" d="M.5,3681.48H1024.226L992.4,3691.831H12.6Z" transform="translate(-2825.332 -1312.018)" fill="#fff" fill-rule="evenodd"/>
    <path id="Path_8" data-name="Path 8" d="M746.538,3638.509H206.992l-42.673-40.965H12.6L.5,3587.19H1024.226L992.4,3597.543H860.4l-42.673,40.965H746.538Z" transform="translate(-2825.332 -1238.294)" fill-rule="evenodd" fill="url(#linear-gradient-3)"/>
    <path id="Path_9" data-name="Path 9" d="M746.539,3638.517H206.994l-42.673-40.965H12.6L.5,3587.2H1024.228L992.4,3597.551H860.407l-42.673,40.965H746.541Z" transform="translate(-2825.332 -1238.302)" fill-rule="evenodd" fill="url(#linear-gradient-4)"/>
    <path id="Path_10" data-name="Path 10" d="M746.538,3638.509H206.992l-42.673-40.965H12.6L.5,3587.19H1024.226L992.4,3597.543H860.4l-42.673,40.965H746.538Z" transform="translate(-2825.332 -1238.294)" fill="none" fill-rule="evenodd"/>
    <path id="Path_11" data-name="Path 11" d="M1138.558,3629.245v24.926h-6.072v-14.949l-5.575,14.949h-4.9l-5.61-14.984v14.984h-6.072v-24.926h7.171l6.995,17.257,6.925-17.257Zm19.885,20.524h-9.3l-1.492,4.4h-6.356l9.019-24.925h7.032l9.019,24.925h-6.428l-1.49-4.4Zm-1.564-4.687-3.088-9.126-3.054,9.126Zm26.666,9.091-8.38-11.006v11.006h-6.072v-24.925h6.072v10.936l8.308-10.936h7.136l-9.658,12.214,10.013,12.711Zm16.369-24.925v24.925h-6.072v-24.925Zm26.7,24.925h-6.07L1210.39,3638.8v15.375h-6.072v-24.925h6.072l10.155,15.446v-15.446h6.07Zm20.949-17.043a4.542,4.542,0,0,0-1.935-1.9,6.32,6.32,0,0,0-2.964-.656,6.1,6.1,0,0,0-4.722,1.935,7.343,7.343,0,0,0-1.775,5.167,7.426,7.426,0,0,0,1.865,5.378,6.784,6.784,0,0,0,5.13,1.935,6.21,6.21,0,0,0,3.782-1.136,6.432,6.432,0,0,0,2.255-3.267h-7.706v-4.476H1254.7v5.647a11.89,11.89,0,0,1-2.29,4.225,12.076,12.076,0,0,1-4.1,3.16,12.679,12.679,0,0,1-5.61,1.208,13.279,13.279,0,0,1-6.587-1.616,11.5,11.5,0,0,1-4.508-4.491,14.2,14.2,0,0,1,0-13.156,11.5,11.5,0,0,1,4.491-4.508,13.173,13.173,0,0,1,6.567-1.616,12.753,12.753,0,0,1,7.544,2.166,10.22,10.22,0,0,1,4.066,6h-6.711Zm33.129,4.262a5.8,5.8,0,0,1,3.481,2.148,6.535,6.535,0,0,1-.87,8.805,9.212,9.212,0,0,1-6.089,1.83H1265.6V3629.25h11.22a9.2,9.2,0,0,1,5.948,1.74,6.309,6.309,0,0,1,.995,8.38,5.973,5.973,0,0,1-3.071,2.024Zm-9.019-2.059h3.976a3.518,3.518,0,0,0,2.29-.656,2.36,2.36,0,0,0,.8-1.935,2.41,2.41,0,0,0-.8-1.952,3.456,3.456,0,0,0-2.29-.674h-3.976v5.219Zm4.474,9.941a3.585,3.585,0,0,0,2.36-.694,2.456,2.456,0,0,0,.835-2.007,2.566,2.566,0,0,0-.87-2.059,3.564,3.564,0,0,0-2.4-.746h-4.4v5.5h4.473Zm18.925-20.027v24.925H1289v-24.925Zm20.949,7.882a4.542,4.542,0,0,0-1.935-1.9,6.321,6.321,0,0,0-2.964-.656,6.1,6.1,0,0,0-4.722,1.935,7.343,7.343,0,0,0-1.776,5.167,7.426,7.426,0,0,0,1.865,5.378,6.784,6.784,0,0,0,5.13,1.935,6.21,6.21,0,0,0,3.782-1.136,6.432,6.432,0,0,0,2.255-3.267h-7.706v-4.476h13.209v5.647a11.89,11.89,0,0,1-2.29,4.225,12.077,12.077,0,0,1-4.1,3.16,12.679,12.679,0,0,1-5.61,1.208,13.28,13.28,0,0,1-6.587-1.616,11.5,11.5,0,0,1-4.508-4.491,14.2,14.2,0,0,1,0-13.156,11.5,11.5,0,0,1,4.491-4.508,13.172,13.172,0,0,1,6.567-1.616,12.753,12.753,0,0,1,7.544,2.166,10.22,10.22,0,0,1,4.066,6h-6.711Zm46.265-7.882v24.925h-6.072v-14.949l-5.575,14.949h-4.9l-5.61-14.984v14.984h-6.072v-24.925h7.172l6.995,17.257,6.925-17.257Zm16.155,25.174a13.023,13.023,0,0,1-6.445-1.634,12.216,12.216,0,0,1-4.652-4.563,13.429,13.429,0,0,1,0-13.154,12.232,12.232,0,0,1,4.652-4.545,13.53,13.53,0,0,1,12.89,0,11.984,11.984,0,0,1,4.615,4.545,13.6,13.6,0,0,1-.015,13.154,12.111,12.111,0,0,1-4.617,4.563,12.914,12.914,0,0,1-6.425,1.634Zm0-5.538a6.115,6.115,0,0,0,4.775-1.989,8.621,8.621,0,0,0,0-10.526,6.146,6.146,0,0,0-4.775-1.972,6.215,6.215,0,0,0-4.811,1.952,8.679,8.679,0,0,0,0,10.565,6.189,6.189,0,0,0,4.811,1.972Zm39.519-19.636-8.842,24.925h-7.6l-8.842-24.925h6.463l6.179,18.818,6.214-18.818h6.426Zm8.593,4.864v5.043h8.131v4.687h-8.131v5.468h9.2v4.864h-15.267v-24.925h15.267v4.864Zm22.156,20.31a12.8,12.8,0,0,1-4.9-.888,7.977,7.977,0,0,1-3.461-2.628,7.185,7.185,0,0,1-1.367-4.19h6.462a3.143,3.143,0,0,0,.96,2.113,3.087,3.087,0,0,0,2.131.729,3.335,3.335,0,0,0,2.131-.621,2.077,2.077,0,0,0,.781-1.723,2.041,2.041,0,0,0-.622-1.527,5.052,5.052,0,0,0-1.527-.995,24.383,24.383,0,0,0-2.574-.887,28.085,28.085,0,0,1-3.941-1.492,7.29,7.29,0,0,1-2.628-2.2,6.143,6.143,0,0,1-1.1-3.8,6.532,6.532,0,0,1,2.521-5.45,10.361,10.361,0,0,1,6.569-1.972,10.465,10.465,0,0,1,6.639,1.972,7.049,7.049,0,0,1,2.7,5.485h-6.569a2.569,2.569,0,0,0-.888-1.9,3.137,3.137,0,0,0-2.1-.692,2.6,2.6,0,0,0-1.776.587,2.114,2.114,0,0,0-.674,1.686,2.092,2.092,0,0,0,1.136,1.882,18.527,18.527,0,0,0,3.551,1.455,33.313,33.313,0,0,1,3.924,1.562,7.468,7.468,0,0,1,2.609,2.166,5.79,5.79,0,0,1,1.1,3.657,7.168,7.168,0,0,1-1.082,3.869,7.581,7.581,0,0,1-3.143,2.77,10.753,10.753,0,0,1-4.864,1.029Zm38.276-25.174v4.864h-6.6v20.062h-6.072v-20.062h-6.6v-4.864Zm14.842,25.174a13.023,13.023,0,0,1-6.445-1.634,12.215,12.215,0,0,1-4.652-4.563,13.429,13.429,0,0,1,0-13.154,12.231,12.231,0,0,1,4.652-4.545,13.528,13.528,0,0,1,12.89,0,11.982,11.982,0,0,1,4.615,4.545,13.6,13.6,0,0,1-.015,13.154,12.109,12.109,0,0,1-4.617,4.563,12.914,12.914,0,0,1-6.425,1.634Zm0-5.538a6.114,6.114,0,0,0,4.774-1.989,8.621,8.621,0,0,0,0-10.526,6.145,6.145,0,0,0-4.774-1.972,6.215,6.215,0,0,0-4.812,1.952,8.679,8.679,0,0,0,0,10.565,6.188,6.188,0,0,0,4.812,1.972Zm32.666-11.754a4.542,4.542,0,0,0-1.935-1.9,6.323,6.323,0,0,0-2.964-.656,6.1,6.1,0,0,0-4.722,1.935,7.343,7.343,0,0,0-1.776,5.167,7.427,7.427,0,0,0,1.865,5.379,6.785,6.785,0,0,0,5.13,1.935,6.21,6.21,0,0,0,3.782-1.136,6.434,6.434,0,0,0,2.255-3.267h-7.706v-4.476h13.209v5.647a11.892,11.892,0,0,1-2.29,4.225,12.076,12.076,0,0,1-4.1,3.16,12.676,12.676,0,0,1-5.61,1.208,13.279,13.279,0,0,1-6.587-1.616,11.5,11.5,0,0,1-4.508-4.491,14.2,14.2,0,0,1,0-13.157,11.5,11.5,0,0,1,4.491-4.508,13.175,13.175,0,0,1,6.567-1.616,12.755,12.755,0,0,1,7.544,2.166,10.22,10.22,0,0,1,4.065,6h-6.711Zm16.583-3.019v5.043h8.131v4.687h-8.131v5.468h9.2v4.864h-15.268v-24.925h15.268v4.864Zm31.067-4.864v4.864h-6.6v20.062h-6.072v-20.062h-6.6v-4.864h19.281Zm24.642,0v24.925h-6.07v-10.262h-9.444v10.262H1585.2v-24.925h6.072v9.765h9.444v-9.765Zm10.441,4.864v5.043h8.131v4.687h-8.131v5.468h9.2v4.864h-15.268v-24.925h15.268v4.864Zm25.848,20.062-5.184-9.409h-1.455v9.409h-6.072v-24.925h10.19a11.216,11.216,0,0,1,5.025,1.03,7.083,7.083,0,0,1,3.106,2.822,7.87,7.87,0,0,1,1.029,3.993,7.418,7.418,0,0,1-1.4,4.438,7.559,7.559,0,0,1-4.135,2.77l5.752,9.871h-6.853Zm-6.639-13.706h3.765a3.451,3.451,0,0,0,2.5-.816,3.082,3.082,0,0,0,.835-2.308,2.991,2.991,0,0,0-.835-2.238,3.444,3.444,0,0,0-2.5-.816h-3.765v6.179Z" transform="translate(-3693.099 -1266.899)"/>
    <path id="Path_12" data-name="Path 12" d="M112.742,3060.606l-81.322-65.28.094,64.911H.01v-129.3L81.4,2991.73v-58.979l31.349.186v127.67Zm85.625-.092H117.228V2932.751h81.139v27.109h-49.79v22.129h25.294l7.285,26.923H148.577v24.679h49.79Zm4.486.092,42.782-66.17-41.521-61.5,34.485.091,25.848,37.62,25.386-37.62,36.021-.183-43.58,61.132,43.305,66.724-34.76-.094-27.107-41.153-28.43,41.153H202.858Zm232.475-127.761v83.383q0,14.477-7.008,25.2a44.537,44.537,0,0,1-19.362,16.382c-8.3,3.78-17.765,5.686-28.461,5.686q-15.03,0-26.308-4.888a37.207,37.207,0,0,1-17.549-14.936q-6.314-10.1-6.3-25.2v-85.719l31.41.094v76.622a42.989,42.989,0,0,0,1.721,12.877,16.923,16.923,0,0,0,6.116,8.82q4.24,3.321,11.71,3.32,13.97,0,18.378-8.175,4.335-8.3,4.334-23.7v-69.86l31.318.094Zm69.337,33.654a44.7,44.7,0,0,0-9.8-7.468,22.272,22.272,0,0,0-10.45-2.336,13.831,13.831,0,0,0-8.268,2.8,8.529,8.529,0,0,0-4.057,7.376c0,4.334,2.951,7.745,8.82,10.267q8.99,3.87,18.472,7.468a42.055,42.055,0,0,1,16.565,11.987c4.609,5.534,6.914,13.617,6.914,24.311q0,20.516-12.325,31.5-12.262,11.11-31.257,11.1a60.916,60.916,0,0,1-21.237-3.78,50.772,50.772,0,0,1-18.195-11.372l16.934-24.125a25.835,25.835,0,0,0,21.331,10.264,19.3,19.3,0,0,0,10.173-2.951,9.309,9.309,0,0,0,4.764-8.482c0-4.365-2.951-7.867-8.914-10.449-2.643-1.139-5.686-2.428-9.158-3.874l-4.7-1.876-4.763-2a42.622,42.622,0,0,1-16.474-11.954q-6.87-7.931-6.855-23.7a37.317,37.317,0,0,1,5.963-21.052,38.162,38.162,0,0,1,15.4-13.708,44.392,44.392,0,0,1,20.07-4.672,52.69,52.69,0,0,1,36.452,14.781l-15.4,21.944Zm111.473,0a44.7,44.7,0,0,0-9.8-7.468,22.272,22.272,0,0,0-10.45-2.336,13.832,13.832,0,0,0-8.268,2.8,8.529,8.529,0,0,0-4.057,7.376c0,4.334,2.951,7.745,8.82,10.267q8.99,3.87,18.472,7.468a42.055,42.055,0,0,1,16.565,11.987c4.609,5.534,6.914,13.617,6.914,24.311q0,20.516-12.325,31.5-12.262,11.11-31.257,11.1a60.916,60.916,0,0,1-21.237-3.78,50.772,50.772,0,0,1-18.195-11.372l16.934-24.125a25.835,25.835,0,0,0,21.331,10.264,19.3,19.3,0,0,0,10.173-2.951,9.309,9.309,0,0,0,4.764-8.482c0-4.365-2.951-7.867-8.914-10.449-2.643-1.139-5.686-2.428-9.158-3.874l-4.7-1.876-4.763-2a42.623,42.623,0,0,1-16.474-11.954q-6.87-7.931-6.855-23.7a37.316,37.316,0,0,1,5.963-21.052,38.162,38.162,0,0,1,15.4-13.708,44.392,44.392,0,0,1,20.07-4.672,52.691,52.691,0,0,1,36.452,14.781l-15.4,21.944Zm22.712,94.016V2932.751h38.171a102.809,102.809,0,0,1,21.791,1.967,42.976,42.976,0,0,1,15.859,6.67,30.483,30.483,0,0,1,10.266,12.694q3.6,8.022,3.6,19.547a38.6,38.6,0,0,1-3.6,16.936,38.193,38.193,0,0,1-9.989,12.785,44.6,44.6,0,0,1-15.244,8.175,59.034,59.034,0,0,1-18.441,2.888h-11v46.1Zm31.41-100.655V2987.3h9.006c5.778,0,10.2-1.2,13.339-3.6,3.073-2.336,4.58-5.778,4.58-10.264,0-4.4-1.507-7.745-4.58-10.081-3.134-2.336-7.562-3.5-13.339-3.5Zm88.884,54.368,12.6-22.681,12.509,22.681Zm50.588,46.287h32.332l-70.32-129.576-70.412,129.576h32.332l12.509-22.681h51.05l12.509,22.681ZM917.7,3021.7a36.609,36.609,0,0,1-7.745,7.315,29.47,29.47,0,0,1-33.685,0,38.408,38.408,0,0,1-12.323-14.044,39.276,39.276,0,0,1-4.611-18.38,39.938,39.938,0,0,1,4.517-18.38,38.171,38.171,0,0,1,12.325-14.044,29.623,29.623,0,0,1,33.868,0,35.352,35.352,0,0,1,7.468,6.947l20.622-21.362a64.881,64.881,0,0,0-13.523-11.156,60.176,60.176,0,0,0-63.036,0,66.075,66.075,0,0,0-23.052,24.31,71.169,71.169,0,0,0,0,67.278,65.561,65.561,0,0,0,23.052,24.219,60.175,60.175,0,0,0,63.036,0,66.079,66.079,0,0,0,13.708-11.342L917.7,3021.7Zm106.247,38.817H942.811V2932.751h81.139v27.109h-49.79v22.129h25.294l7.285,26.923H974.159v24.679h49.79Z" transform="translate(-2824.949 -724.193)" fill="url(#linear-gradient-5)"/>
  </g>
</svg>
